<?xml version="1.0" encoding="UTF-8" standalone="no"?>
<!-- Created with Inkscape (http://www.inkscape.org/) -->

<svg
   xmlns:dc="http://purl.org/dc/elements/1.1/"
   xmlns:cc="http://creativecommons.org/ns#"
   xmlns:rdf="http://www.w3.org/1999/02/22-rdf-syntax-ns#"
   xmlns:svg="http://www.w3.org/2000/svg"
   xmlns="http://www.w3.org/2000/svg"
   xmlns:sodipodi="http://sodipodi.sourceforge.net/DTD/sodipodi-0.dtd"
   xmlns:inkscape="http://www.inkscape.org/namespaces/inkscape"
   width="1200"
   height="400"
   viewBox="0 0 317.496 105.832"
   version="1.1"
   id="svg3686"
   inkscape:version="0.92.1 r15371"
   sodipodi:docname="header.svg">
  <defs
     id="defs3680">
    <inkscape:path-effect
       effect="bend_path"
       id="path-effect867"
       is_visible="true"
       bendpath="m 110.45569,266.80876 25.9885,-10.01021 31.39928,-2.407 36.26237,-19.38746"
       prop_scale="1"
       scale_y_rel="false"
       vertical="false"
       bendpath-nodetypes="cccc" />
  </defs>
  <sodipodi:namedview
     id="base"
     pagecolor="#ffffff"
     bordercolor="#666666"
     borderopacity="1.0"
     inkscape:pageopacity="0.0"
     inkscape:pageshadow="2"
     inkscape:zoom="0.49497475"
     inkscape:cx="967.05154"
     inkscape:cy="105.11589"
     inkscape:document-units="px"
     inkscape:current-layer="layer1"
     showgrid="false"
     units="px"
     inkscape:window-width="1366"
     inkscape:window-height="704"
     inkscape:window-x="0"
     inkscape:window-y="27"
     inkscape:window-maximized="1" />
  <metadata
     id="metadata3683">
    <rdf:RDF>
      <cc:Work
         rdf:about="">
        <dc:format>image/svg+xml</dc:format>
        <dc:type
           rdf:resource="http://purl.org/dc/dcmitype/StillImage" />
        <dc:title></dc:title>
      </cc:Work>
    </rdf:RDF>
  </metadata>
  <g
     inkscape:label="Ebene 1"
     inkscape:groupmode="layer"
     id="layer1"
     transform="translate(0,-191.16665)">
    <path
       style="opacity:1;fill:#96db36;fill-opacity:1;stroke:#000000;stroke-width:0.26458001;stroke-opacity:1;image-rendering:auto"
       d="m 0.22685669,191.16665 v 105.832 H 53.142856 v -105.832 z"
       id="rect3694"
       inkscape:connector-curvature="0" />
    <rect
       id="rect3696"
       width="239.63388"
       height="55.183826"
       x="-219.97937"
       y="-18.229527"
       rx="105.832"
       ry="52.916"
       style="stroke-width:0.26458001" />
    <rect
       style="opacity:0.93000034;fill:#000000;fill-opacity:1;stroke-width:0.26458001"
       id="rect4571"
       width="86.17749"
       height="99.784454"
       x="-21.166395"
       y="-25.78895" />
    <path
       style="opacity:1;fill:#494b49;fill-opacity:1;stroke:#000000;stroke-width:0.26458001;stroke-opacity:1;image-rendering:auto"
       d="m 53.142856,191.16665 v 105.832 h 52.916004 v -105.832 z"
       id="rect3694-3"
       inkscape:connector-curvature="0" />
    <text
       xml:space="preserve"
       style="font-style:normal;font-variant:normal;font-weight:normal;font-stretch:normal;font-size:121.35402679px;line-height:1.25;font-family:'Sci Fied 2002';-inkscape-font-specification:'Sci Fied 2002, ';letter-spacing:0px;word-spacing:0px;opacity:1;fill:#ffffff;fill-opacity:1;stroke:#494b49;stroke-width:0.26458001;stroke-linecap:butt;stroke-linejoin:round;stroke-miterlimit:4;stroke-dasharray:none;stroke-dashoffset:0;stroke-opacity:1"
       x="8.715023"
       y="284.36649"
       id="text5044"><tspan
         sodipodi:role="line"
         id="tspan5042"
         x="8.715023"
         y="284.36649"
         style="font-style:normal;font-variant:normal;font-weight:normal;font-stretch:normal;font-size:121.35402679px;font-family:'Sci Fied 2002';-inkscape-font-specification:'Sci Fied 2002, ';fill:#ffffff;fill-opacity:1;stroke:#494b49;stroke-width:0.26458001;stroke-linecap:butt;stroke-linejoin:round;stroke-miterlimit:4;stroke-dasharray:none;stroke-dashoffset:0;stroke-opacity:1">S</tspan></text>
    <text
       xml:space="preserve"
       style="font-style:normal;font-weight:normal;font-size:10.58320045px;line-height:1.25;font-family:sans-serif;letter-spacing:0px;word-spacing:0px;fill:#494b49;fill-opacity:1;stroke:none;stroke-width:0.26458001"
       x="175.90948"
       y="284.08417"
       id="text847"><tspan
         sodipodi:role="line"
         id="tspan845"
         x="175.90948"
         y="284.08417"
         style="font-style:normal;font-variant:normal;font-weight:normal;font-stretch:normal;font-family:'Sci Fied 2002';-inkscape-font-specification:'Sci Fied 2002, ';fill:#494b49;fill-opacity:1;stroke-width:0.26458001"><tspan
           style="font-size:25.39967918px"
           id="tspan4539">.rocks</tspan></tspan></text>
    <g
       aria-label="alty"
       style="font-style:normal;font-weight:normal;font-size:10.58320045px;line-height:1.25;font-family:sans-serif;letter-spacing:0px;word-spacing:0px;fill:#96db36;fill-opacity:1;stroke:#000000;stroke-width:0.26458001;stroke-opacity:1"
       id="text839"
       inkscape:path-effect="#path-effect867"
       transform="translate(7.9374,3.70412)">
      <path
         d="m 117.06541,267.27322 c 0.13132,0.37583 0.37154,0.64685 0.71857,0.81319 0.36263,0.13524 0.73969,0.12657 1.13288,-0.0263 l 9.71542,-3.7787 c 0.34697,-0.13495 0.6636,-0.33273 0.95099,-0.59359 0.30439,-0.29229 0.55125,-0.61184 0.74067,-0.9585 0.20663,-0.37818 0.3389,-0.75219 0.39591,-1.12165 0.0744,-0.40105 0.0681,-0.77065 -0.0205,-1.10847 l -1.41755,-5.40519 c -0.0886,-0.33784 -0.25903,-0.63202 -0.51266,-0.88232 -0.23523,-0.2821 -0.53243,-0.49109 -0.89238,-0.62697 -0.34146,-0.16766 -0.71501,-0.24893 -1.12021,-0.24397 -0.38674,-0.0268 -0.76518,0.0299 -1.13399,0.16973 l -14.75238,5.59532 c -0.86031,0.32631 -1.6631,0.35468 -2.41475,0.0863 -0.73485,-0.29947 -1.25433,-0.83295 -1.55011,-1.60086 -0.27059,-0.70249 -0.24495,-1.41541 0.0839,-2.14165 0.32877,-0.72609 0.97702,-1.26991 1.93949,-1.63071 l 15.18897,-5.69391 c 1.24052,-0.46503 2.46428,-0.6883 3.66024,-0.66738 1.22152,0.0114 2.33665,0.23448 3.34303,0.66999 1.00663,0.43562 1.8575,1.06337 2.55752,1.88345 0.69478,0.79745 1.16315,1.75267 1.41696,2.86452 l 1.24291,5.44463 c 0.25371,1.11135 0.27153,2.25299 0.0649,3.42071 -0.21191,1.14496 -0.60428,2.23891 -1.17249,3.2786 -0.5683,1.03986 -1.29045,1.96889 -2.16854,2.78623 -0.85587,0.80875 -1.82737,1.42839 -2.92501,1.86112 l -9.40979,3.70968 c -0.91854,0.36212 -1.85281,0.52943 -2.81087,0.50369 -0.93535,-0.0346 -1.81893,-0.22919 -2.65201,-0.58323 -0.8329,-0.35396 -1.58543,-0.85467 -2.25434,-1.50188 -0.6773,-0.66918 -1.19352,-1.45309 -1.54005,-2.35275 -0.34666,-0.9 -0.48537,-1.81688 -0.40843,-2.75363 0.0686,-0.95876 0.31464,-1.85832 0.74058,-2.70073 0.42587,-0.84227 1.01107,-1.60591 1.7543,-2.2914 0.76722,-0.69457 1.65132,-1.23219 2.64458,-1.6112 l 7.26703,-2.77301 c 0.7996,-0.30512 1.55675,-0.29541 2.26443,0.0305 0.72581,0.29442 1.18785,0.81234 1.39483,1.55303 0.20685,0.74024 0.0996,1.49017 -0.31351,2.24628 -0.39605,0.72485 -0.97848,1.23645 -1.75355,1.53595 l -7.04874,2.72372 c -0.3995,0.15437 -0.6947,0.41885 -0.8839,0.79312 -0.17347,0.34318 -0.19367,0.7023 -0.0623,1.07826 z"
         style="font-style:normal;font-variant:normal;font-weight:normal;font-stretch:normal;font-size:42.33280182px;font-family:'Sci Fied 2002';-inkscape-font-specification:'Sci Fied 2002, ';fill:#96db36;fill-opacity:1;stroke:#000000;stroke-width:0.26458001;stroke-opacity:1"
         id="path858"
         inkscape:original-d="m 116.10006,261.61296 q 0,0.59971 0.38805,1.02304 0.42333,0.38805 1.02304,0.38805 h 9.87766 q 0.52916,0 1.02304,-0.21166 0.52916,-0.24694 0.91721,-0.63499 0.42333,-0.42333 0.63499,-0.91721 0.24694,-0.52916 0.24694,-1.05832 v -5.64438 q 0,-0.52916 -0.24694,-1.02304 -0.21166,-0.52916 -0.63499,-0.91721 -0.38805,-0.42333 -0.91721,-0.63499 -0.49388,-0.24694 -1.02304,-0.24694 h -14.11094 q -1.2347,0 -2.04608,-0.77611 -0.7761,-0.81137 -0.7761,-2.04608 0,-1.12888 0.74082,-1.97553 0.74083,-0.84666 2.08136,-0.84666 h 14.11094 q 1.72859,0 3.24551,0.67027 1.55221,0.67027 2.71636,1.83442 1.16415,1.16416 1.83442,2.71636 0.67027,1.51692 0.67027,3.24551 v 5.64438 q 0,1.72859 -0.67027,3.28079 -0.67027,1.51692 -1.83442,2.68108 -1.16415,1.16415 -2.71636,1.83442 -1.51692,0.67027 -3.24551,0.67027 h -9.87766 q -1.44637,0 -2.75163,-0.56444 -1.26998,-0.56444 -2.22247,-1.51693 -0.95249,-0.95248 -1.51693,-2.22247 -0.56443,-1.30526 -0.56443,-2.75163 0,-1.44637 0.56443,-2.71636 0.56444,-1.30526 1.51693,-2.25774 0.95249,-0.95249 2.22247,-1.51693 1.30526,-0.56444 2.75163,-0.56444 h 7.05547 q 1.16415,0 1.97553,0.84666 0.84666,0.81138 0.84666,1.97553 0,1.16415 -0.84666,2.01081 -0.81138,0.81138 -1.97553,0.81138 h -7.05547 q -0.59971,0 -1.02304,0.42332 -0.38805,0.38805 -0.38805,0.98777 z"
         inkscape:connector-curvature="0" />
      <path
         d="m 141.45523,241.26558 c -0.20848,-0.85602 -0.66549,-1.50178 -1.36783,-1.93738 -0.7025,-0.4357 -1.44426,-0.62917 -2.22723,-0.57924 -0.85642,0.0546 -1.50469,0.3597 -1.94723,0.91657 -0.42319,0.53249 -0.54449,1.19588 -0.36135,1.98851 l 3.7677,16.30711 c 0.25644,1.10988 0.74071,2.14414 1.45706,3.10146 0.71112,0.93473 1.57687,1.74045 2.5993,2.41722 1.02238,0.67675 2.1387,1.18303 3.34847,1.51979 1.23537,0.33459 2.48567,0.44845 3.74725,0.34342 l 3.08941,-0.25723 c 0.97843,-0.0815 1.6686,-0.41359 2.06832,-0.99511 0.39983,-0.58167 0.50455,-1.22949 0.3167,-1.94497 -0.19367,-0.73766 -0.627,-1.34204 -1.29722,-1.8136 -0.6761,-0.49395 -1.49761,-0.70304 -2.466,-0.62603 l -3.05884,0.24322 c -0.38236,0.0304 -0.78155,-0.007 -1.19717,-0.11125 -0.39571,-0.12916 -0.77673,-0.30546 -1.14295,-0.52901 -0.34629,-0.24809 -0.64675,-0.52287 -0.90159,-0.82433 -0.23492,-0.32598 -0.39333,-0.65805 -0.47564,-0.99603 z"
         style="font-style:normal;font-variant:normal;font-weight:normal;font-stretch:normal;font-size:42.33280182px;font-family:'Sci Fied 2002';-inkscape-font-specification:'Sci Fied 2002, ';fill:#96db36;fill-opacity:1;stroke:#000000;stroke-width:0.26458001;stroke-opacity:1"
         id="path860"
         inkscape:original-d="m 144.29437,243.26875 q 0,-1.34054 -0.84666,-2.08137 -0.84665,-0.74082 -1.97553,-0.74082 -1.23471,0 -2.04608,0.81138 -0.77611,0.7761 -0.77611,2.01081 v 16.93312 q 0,1.72859 0.67027,3.28079 0.67027,1.51692 1.83443,2.68108 1.16415,1.16415 2.68107,1.83442 1.55221,0.67027 3.28079,0.67027 h 2.82219 q 1.34054,0 2.08136,-0.84666 0.74083,-0.84666 0.74083,-1.97553 0,-1.16415 -0.74083,-1.97553 -0.74082,-0.84666 -2.08136,-0.84666 h -2.82219 q -0.52916,0 -1.05832,-0.21166 -0.49388,-0.24694 -0.91721,-0.63499 -0.38805,-0.42333 -0.63499,-0.91721 -0.21166,-0.52916 -0.21166,-1.05832 z"
         inkscape:connector-curvature="0" />
      <path
         d="m 167.21913,247.05079 c 0.75342,-0.41013 1.29283,-0.98595 1.61317,-1.72652 0.33505,-0.77454 0.37716,-1.54384 0.1334,-2.31221 -0.22271,-0.70204 -0.63986,-1.19491 -1.2441,-1.47969 -0.60457,-0.28495 -1.2995,-0.20939 -2.09065,0.22788 l -1.26674,0.70013 -4.43042,0.30048 -0.75034,-2.66182 c -0.23755,-0.8427 -0.71714,-1.47813 -1.43554,-1.90638 -0.71857,-0.42834 -1.46836,-0.61813 -2.25133,-0.56821 -0.85642,0.0546 -1.4959,0.35568 -1.92084,0.90449 -0.40636,0.52479 -0.50585,1.17819 -0.29593,1.95857 l 4.31859,16.0549 c 0.29993,1.11504 0.82277,2.14411 1.57284,3.08603 0.74405,0.91966 1.62615,1.71306 2.6482,2.38037 1.04152,0.64293 2.17459,1.12904 3.39886,1.45915 1.24989,0.32796 2.52028,0.43743 3.80763,0.33024 l 1.52363,-0.12685 7.09332,-3.70438 c 0.89653,-0.46821 1.50306,-1.09296 1.81471,-1.87353 0.3117,-0.7807 0.34183,-1.51737 0.097,-2.21336 -0.25236,-0.71734 -0.71042,-1.19831 -1.36689,-1.44388 -0.66444,-0.26749 -1.42851,-0.17178 -2.29809,0.28837 l -6.88636,3.64403 -1.50855,0.11995 c -0.84131,0.0669 -1.64081,-0.12981 -2.3964,-0.5914 -0.7365,-0.4858 -1.20639,-1.09508 -1.41277,-1.82719 l -2.25102,-7.98546 c 1.49202,-0.10712 2.98405,-0.21425 4.47607,-0.32137 0.43619,-0.23745 0.87239,-0.47489 1.30858,-0.71234 z"
         style="font-style:normal;font-variant:normal;font-weight:normal;font-stretch:normal;font-size:42.33280182px;font-family:'Sci Fied 2002';-inkscape-font-specification:'Sci Fied 2002, ';fill:#96db36;fill-opacity:1;stroke:#000000;stroke-width:0.26458001;stroke-opacity:1"
         id="path862"
         inkscape:original-d="m 166.8884,251.73531 q 1.23471,0 2.01081,-0.77611 0.81138,-0.81137 0.81138,-2.04608 0,-1.12888 -0.74083,-1.97553 -0.74082,-0.84666 -2.08136,-0.84666 h -5.64437 v -2.82218 q 0,-1.34054 -0.84666,-2.08137 -0.84665,-0.74082 -1.97553,-0.74082 -1.23471,0 -2.04608,0.81138 -0.77611,0.7761 -0.77611,2.01081 v 16.93312 q 0,1.76386 0.67027,3.31607 0.67027,1.51692 1.79915,2.68107 1.16415,1.12888 2.68107,1.79915 1.55221,0.67027 3.31607,0.67027 h 8.46656 q 1.34054,0 2.08137,-0.84666 0.74082,-0.84666 0.74082,-1.97553 0,-1.16415 -0.74082,-1.97553 -0.74083,-0.84666 -2.08137,-0.84666 h -8.46656 q -1.16415,0 -2.0108,-0.81138 -0.81138,-0.84665 -0.81138,-2.0108 v -8.46656 z"
         inkscape:connector-curvature="0" />
      <path
         d="m 199.44865,226.29326 c -0.42124,-0.78787 -1.00225,-1.26099 -1.73441,-1.42012 -0.73279,-0.15928 -1.42922,-0.0556 -2.09561,0.31273 -0.72865,0.40273 -1.21006,0.97669 -1.44996,1.72303 -0.22936,0.71356 -0.16519,1.43869 0.19866,2.17128 l 6.24035,12.56441 -11.12556,5.88727 c -0.34339,0.18171 -0.70233,0.29331 -1.07575,0.3345 -0.35945,0.008 -0.70854,-0.029 -1.04707,-0.11022 -0.32452,-0.11471 -0.62263,-0.26921 -0.89465,-0.46348 -0.25805,-0.22777 -0.45161,-0.5026 -0.58182,-0.82424 l -4.2188,-10.42094 c -0.32976,-0.81454 -0.83968,-1.3084 -1.5213,-1.48226 -0.66132,-0.18557 -1.33258,-0.0892 -2.01976,0.29061 -0.66629,0.36826 -1.16254,0.91708 -1.49454,1.6478 -0.33177,0.7302 -0.34927,1.5088 -0.0457,2.33077 l 3.88445,10.51844 c 0.38371,1.03903 0.96172,1.90922 1.74526,2.60846 0.77543,0.67761 1.67033,1.17666 2.68921,1.49682 1.03368,0.2863 2.12721,0.37474 3.27804,0.26628 1.17408,-0.12073 2.33235,-0.47815 3.46424,-1.06927 l 11.45991,-5.98477 c 0.34334,0.69129 0.3511,1.42499 0.0161,2.20487 -0.30078,0.78821 -0.84914,1.38794 -1.63892,1.79777 l -14.35443,7.44879 c -0.90864,0.47151 -1.51989,1.0861 -1.83842,1.84447 -0.31037,0.77982 -0.33701,1.52846 -0.0733,2.24244 0.25581,0.6927 0.7345,1.16697 1.44341,1.42156 0.70857,0.25447 1.53357,0.1413 2.46916,-0.33825 l 14.76721,-7.56916 c 1.20616,-0.61824 2.24231,-1.39822 3.09857,-2.33729 0.881,-0.9519 1.54579,-1.97803 1.99216,-3.07898 0.44643,-1.10112 0.6534,-2.22517 0.62463,-3.37528 -0.0178,-1.12929 -0.30345,-2.19988 -0.84692,-3.21638 z"
         style="font-style:normal;font-variant:normal;font-weight:normal;font-stretch:normal;font-size:42.33280182px;font-family:'Sci Fied 2002';-inkscape-font-specification:'Sci Fied 2002, ';fill:#96db36;fill-opacity:1;stroke:#000000;stroke-width:0.26458001;stroke-opacity:1"
         id="path864"
         inkscape:original-d="m 203.57131,248.91312 q 0,-1.34054 -0.84666,-2.08136 -0.84665,-0.74083 -1.97553,-0.74083 -1.2347,0 -2.04608,0.81138 -0.7761,0.7761 -0.7761,2.01081 v 14.11093 h -11.42986 q -0.52916,0 -1.02304,-0.21166 -0.45861,-0.24694 -0.84666,-0.59972 -0.35277,-0.38805 -0.59971,-0.84665 -0.21167,-0.49388 -0.21167,-1.02304 v -11.42986 q 0,-1.34054 -0.84665,-2.08136 -0.81138,-0.74083 -1.97553,-0.74083 -1.12888,0 -1.97553,0.74083 -0.84666,0.74082 -0.84666,2.08136 v 11.42986 q 0,1.69331 0.67027,3.21023 0.67027,1.48165 1.79914,2.6458 1.16416,1.12888 2.6458,1.79915 1.51693,0.67027 3.21024,0.67027 h 11.42986 q 0,1.16415 -0.84666,1.97553 -0.81138,0.84665 -1.97553,0.84665 h -14.11093 q -1.34054,0 -2.08137,0.81138 -0.74082,0.84666 -0.74082,2.01081 0,1.12887 0.74082,1.97553 0.74083,0.84666 2.08137,0.84666 h 14.11093 q 1.72859,0 3.24552,-0.67027 1.5522,-0.67027 2.71635,-1.83442 1.16415,-1.16416 1.83442,-2.71636 0.67027,-1.51692 0.67027,-3.24551 z"
         inkscape:connector-curvature="0" />
    </g>
  </g>
</svg>
